<?xml version="1.0" standalone="no"?><!DOCTYPE svg PUBLIC "-//W3C//DTD SVG 1.1//EN" "http://www.w3.org/Graphics/SVG/1.1/DTD/svg11.dtd"><svg t="1788413266659" class="icon" viewBox="0 0 1024 1024" version="1.1" xmlns="http://www.w3.org/2000/svg" p-id="1814" xmlns:xlink="http://www.w3.org/1999/xlink" width="200" height="200"><path d="M510.4 136c-211.2 0-384 172.8-384 384s172.8 384 384 384 384-172.8 384-384-172.8-384-384-384zM827.2 336c30.4 54.4 48 113.6 48 180.8h-73.6c0-44.8-14.4-102.4-40-144l65.6-36.8zM513.6 153.6c67.2 0 128 19.2 180.8 49.6l-36.8 64c-43.2-25.6-99.2-40-144-40V153.6z m-184 48l36.8 64c-44.8 25.6-81.6 62.4-108.8 105.6l-64-36.8c33.6-56 80-100.8 136-132.8zM192 702.4c-30.4-54.4-48-116.8-48-184v-1.6h73.6v1.6c0 52.8 14.4 104 40 147.2L192 702.4z m38.4-182.4c0-155.2 124.8-280 280-280s280 124.8 280 280S664 800 510.4 800s-280-124.8-280-280z m283.2 366.4h-3.2c-65.6 0-128-17.6-182.4-48l36.8-64c43.2 24 92.8 38.4 145.6 38.4h3.2v73.6z m182.4-51.2l-36.8-64c43.2-25.6 80-64 105.6-107.2l64 36.8c-32 56-78.4 102.4-132.8 134.4z" fill="#1afa29" p-id="1815"></path><path d="M478.4 779.2c96 16 174.4-40 174.4-40-43.2 28.8-164.8-44.8-164.8-44.8-6.4 19.2 4.8 38.4 4.8 38.4-16-8-27.2-20.8-27.2-20.8-1.6 19.2 9.6 33.6 9.6 33.6s-12.8 1.6-25.6-4.8c-36.8-19.2-25.6-64-25.6-64 11.2 19.2 33.6 20.8 33.6 20.8-19.2-9.6-14.4-25.6-14.4-25.6 4.8-17.6 24-12.8 24-12.8 12.8 1.6 14.4 20.8 14.4 20.8 11.2-4.8 8-19.2 8-19.2 36.8 14.4 60.8 12.8 60.8 12.8 4.8 12.8 17.6 16 17.6 16-4.8-8 1.6-14.4 1.6-14.4 46.4-8 60.8-44.8 60.8-44.8 4.8 6.4 16 12.8 16 12.8-8-9.6-8-25.6-8-25.6 19.2 12.8 32 9.6 32 9.6-33.6-17.6-33.6-40-33.6-40 35.2 3.2 40-8 40-8-36.8 0-64-27.2-64-27.2 12.8-14.4 11.2-28.8 11.2-28.8-17.6 19.2-60.8 12.8-60.8 12.8-62.4-12.8-99.2 27.2-99.2 27.2 3.2-12.8-1.6-22.4-1.6-22.4-1.6 16-12.8 22.4-12.8 22.4-22.4 9.6-30.4-1.6-30.4-1.6 35.2-12.8 30.4-28.8 30.4-28.8-19.2 24-36.8 3.2-36.8 3.2 4.8 3.2 11.2 1.6 11.2 1.6-20.8-12.8-9.6-36.8-9.6-36.8 1.6 9.6 12.8 16 12.8 16-6.4-12.8 4.8-22.4 4.8-22.4-4.8 24 16 32 16 32-14.4-16 1.6-27.2 1.6-27.2 0 30.4 28.8 46.4 28.8 46.4-12.8-16-9.6-33.6-9.6-33.6 44.8 38.4 68.8 9.6 68.8 9.6 12.8 8 33.6 11.2 33.6 11.2-16-6.4-24-19.2-24-19.2 25.6 14.4 48 12.8 48 12.8-20.8-4.8-32-17.6-32-17.6 38.4 12.8 60.8-8 60.8-8 0 9.6-14.4 24-14.4 24 57.6-35.2 40-94.4 40-94.4 27.2 40 14.4 99.2 14.4 99.2 27.2-62.4-1.6-105.6-1.6-105.6 81.6 81.6 65.6 243.2 65.6 243.2 84.8-131.2 30.4-249.6-4.8-299.2-59.2-86.4-153.6-102.4-153.6-102.4 78.4 57.6 54.4 176 54.4 176 4.8-60.8-36.8-67.2-36.8-67.2 24 14.4 19.2 81.6 19.2 81.6-1.6 36.8-32 25.6-32 25.6 16-27.2-1.6-41.6-1.6-41.6 4.8 22.4-17.6 36.8-17.6 36.8-9.6 3.2-27.2-1.6-27.2-1.6-12.8-3.2-27.2 0-27.2 0-16 6.4-12.8 17.6-12.8 20.8 1.6 8 9.6 9.6 12.8 9.6 16 0 11.2-9.6 11.2-9.6 0 8-8 4.8-8 4.8-1.6 0-3.2-3.2-3.2-3.2-1.6-8 8-8 9.6-6.4 4.8 1.6 4.8 6.4 4.8 8 0 9.6-9.6 12.8-16 12.8-12.8 0-17.6-6.4-19.2-12.8-4.8-27.2 32-32 32-32 32-8 44.8-25.6 44.8-25.6 28.8-28.8 4.8-67.2 4.8-67.2-9.6-16-28.8-30.4-28.8-30.4 28.8-8 36.8-28.8 36.8-28.8-20.8 17.6-57.6 16-57.6 16 27.2-30.4 8-57.6 8-57.6 4.8 46.4-43.2 56-43.2 56 1.6-20.8-8-30.4-8-30.4 3.2 14.4-6.4 25.6-6.4 25.6 0-28.8-12.8-38.4-12.8-38.4 4.8 22.4-6.4 33.6-6.4 33.6 3.2-35.2-17.6-48-17.6-48 19.2 43.2-20.8 68.8-20.8 68.8 3.2-25.6-24-49.6-24-49.6 8 33.6-1.6 59.2-1.6 59.2-25.6 11.2-35.2 44.8-35.2 44.8 3.2-3.2 11.2-4.8 12.8-6.4v3.2c1.6 8 0 16-20.8 25.6-22.4 9.6-49.6-8-49.6-8s12.8 20.8 27.2 32c12.8 9.6 25.6 6.4 25.6 6.4s-6.4-1.6-6.4-4.8c0-3.2-1.6-6.4 3.2-11.2 4.8-3.2 11.2 0 11.2 0s0-4.8 4.8-6.4c4.8-1.6 8 1.6 8 1.6s-1.6-3.2 1.6-6.4c4.8-4.8 9.6-8 16-4.8 3.2 1.6 4.8 6.4 0 12.8-3.2 3.2-6.4 1.6-6.4 1.6s3.2 1.6 1.6 4.8c-1.6 4.8-4.8 3.2-4.8 3.2s4.8 4.8 1.6 11.2c-4.8 8-17.6 6.4-17.6 6.4s9.6 4.8 20.8 4.8c17.6-1.6 25.6-8 25.6-8s-8 4.8-14.4-4.8c-1.6-4.8 0-12.8 9.6-19.2 8-4.8 19.2-3.2 19.2-3.2l-1.6-1.6h1.6c6.4-8 17.6-11.2 17.6-11.2 48 0 57.6-36.8 57.6-36.8-19.2 25.6-43.2 22.4-43.2 22.4 19.2-9.6 17.6-27.2 17.6-27.2-11.2 19.2-33.6 14.4-33.6 14.4l-8 6.4c16-22.4 54.4-30.4 54.4-30.4 57.6-6.4 57.6 33.6 57.6 33.6 1.6 54.4-89.6 56-89.6 56-41.6 4.8-64 17.6-75.2 32-8 1.6-16 1.6-20.8 3.2-30.4 3.2-48-24-48-24s-3.2-3.2-11.2-1.6c-22.4 3.2-28.8 14.4-28.8 14.4s6.4-4.8 14.4-8c6.4-3.2 17.6-1.6 19.2-1.6-1.6 1.6-3.2 4.8-4.8 4.8 8 1.6 16 8 19.2 9.6-1.6-1.6-12.8-4.8-12.8-4.8s-30.4-14.4-44.8 22.4c0-1.6 6.4-9.6 16-16 6.4-3.2 14.4-1.6 16-1.6 0 1.6-1.6 4.8-3.2 6.4 4.8 0 16 0 22.4 6.4-1.6-1.6-11.2-3.2-25.6-4.8-12.8 3.2-25.6 11.2-27.2 36.8 0-3.2 6.4-12.8 12.8-17.6 4.8-4.8 11.2-8 11.2-8l-1.6 8s17.6-8 28.8-1.6c-3.2-1.6-20.8 1.6-25.6 4.8-6.4 4.8-19.2 14.4-11.2 36.8-1.6-4.8 8-19.2 19.2-25.6 1.6-1.6 4.8 4.8 4.8 4.8s12.8-12.8 22.4-11.2c16 3.2 14.4 35.2-4.8 35.2 28.8-1.6 43.2-24 43.2-24s-16-11.2-16-20.8c3.2 0 14.4-1.6 25.6-3.2 0 1.6 0 3.2-1.6 3.2-3.2 16-1.6 28.8 0 41.6 6.4 20.8 6.4 17.6 12.8 30.4 24 35.2 65.6 49.6 65.6 49.6-24-14.4-28.8-28.8-28.8-28.8 48 20.8 83.2-3.2 83.2-3.2 9.6 12.8 22.4 14.4 22.4 14.4-9.6-9.6-8-17.6-8-17.6 12.8 19.2 27.2 19.2 36.8 17.6 17.6-3.2 20.8-28.8 20.8-28.8-11.2 20.8-28.8 11.2-32 8-6.4-6.4-4.8-16 1.6-22.4 12.8-11.2 28.8-1.6 28.8-1.6 28.8 17.6 1.6 49.6 1.6 49.6 17.6 3.2 33.6-9.6 33.6-9.6-9.6 64-86.4 35.2-115.2 28.8-54.4-12.8-89.6 28.8-89.6 28.8-11.2 12.8-22.4-1.6-22.4-1.6-4.8 16 20.8 20.8 20.8 20.8-27.2 33.6-80 11.2-80 11.2 40 44.8 80 16 80 16 30.4 62.4 108.8 54.4 108.8 54.4 1.6 4.8-17.6 16-17.6 16zM380.8 384c3.2-9.6 22.4-19.2 22.4-19.2-4.8 6.4-4.8 9.6-4.8 9.6 4.8 4.8 8 4.8 8 4.8l-25.6 4.8z" fill="#1afa29" p-id="1816"></path></svg>